P2
64 64
255
0 0 0 0 3 3 3 3 3 3 3 3 3 3 3 3 3 3 3 3 3 3 3 3 3 3 3 3 3 3 3 3 3 3 3 3 3 3 3 3 3 3 3 3 3 3 3 3 3 3 3 3 3 3 3 3 3 3 3 3 3 0 0 0 
0 0 0 3 3 3 3 3 3 3 3 3 3 3 3 3 3 3 3 3 3 3 3 3 3 3 3 3 3 3 3 3 3 3 3 3 3 3 3 3 3 3 3 3 3 3 3 3 3 3 3 3 3 3 3 3 3 3 3 3 3 3 0 0 
0 0 3 3 3 3 3 3 3 3 3 3 3 3 3 3 3 3 3 3 3 3 3 3 3 3 3 3 3 3 3 3 3 3 3 3 3 3 3 3 3 3 3 3 3 3 3 3 3 3 3 3 3 3 3 3 3 3 3 3 3 3 3 0 
0 3 3 3 3 3 3 3 3 3 3 3 3 3 3 3 3 3 3 3 3 3 3 3 3 3 3 3 3 3 3 3 3 3 3 3 3 3 3 3 3 3 3 3 3 3 3 3 3 3 3 3 3 3 3 3 3 3 3 3 3 3 3 3 
3 3 3 3 3 3 3 3 3 3 3 3 3 3 3 3 3 3 3 3 3 3 3 3 3 3 3 3 3 3 3 3 3 3 3 3 3 3 3 3 3 3 3 3 3 3 3 3 3 3 3 3 3 3 3 3 3 3 3 3 3 3 3 3 
3 3 3 3 3 3 3 3 3 3 3 3 3 3 3 3 3 3 3 3 3 3 3 3 3 3 3 3 3 3 3 3 3 3 3 3 3 3 3 3 3 3 3 3 3 3 3 3 3 3 3 3 3 3 3 3 3 3 3 3 3 3 3 3 
3 3 3 3 3 3 3 3 3 3 3 3 3 3 3 3 3 3 3 3 3 3 3 3 3 3 3 3 3 3 3 3 3 3 3 3 3 3 3 3 3 3 3 3 3 3 3 3 3 3 3 3 3 3 3 3 3 3 3 3 3 3 3 3 
3 3 3 3 3 3 3 3 3 3 3 3 3 3 3 3 3 3 3 3 3 3 3 3 3 3 3 3 3 3 3 3 3 3 3 3 3 3 3 3 3 3 3 3 3 3 3 3 3 3 3 3 3 3 3 3 3 3 3 3 3 3 3 3 
3 3 3 3 3 3 3 3 3 3 3 3 3 3 3 3 3 3 3 3 3 3 3 3 3 3 3 3 3 3 3 3 3 3 3 3 3 3 3 3 3 3 3 3 3 3 3 3 3 3 3 3 3 3 3 3 3 3 3 3 3 3 3 3 
3 3 3 3 3 3 3 3 3 3 3 3 3 3 3 3 3 3 3 3 3 3 3 3 3 3 3 3 3 7 7 7 7 7 7 7 7 7 7 7 7 7 7 7 7 7 7 3 3 3 3 3 3 3 3 3 3 3 3 3 3 3 3 3 
3 3 3 3 3 3 3 3 3 3 3 3 3 3 3 3 3 3 3 3 3 3 7 7 7 7 7 7 7 7 7 7 7 7 7 7 7 7 7 7 7 7 7 7 7 7 7 7 7 7 7 7 3 3 3 3 3 3 3 3 3 3 3 3 
3 3 3 3 3 3 3 3 3 3 3 3 3 3 3 3 3 7 7 7 7 7 7 7 7 7 7 7 7 7 7 7 7 7 7 7 7 7 7 7 7 7 7 7 7 7 7 7 7 7 7 7 7 7 3 3 3 3 3 3 3 3 3 3 
3 3 3 3 3 3 3 3 3 3 3 3 3 3 7 7 7 7 7 7 7 7 7 7 7 7 7 7 7 7 7 7 7 7 7 7 7 7 7 7 7 7 7 7 7 7 7 7 7 7 7 7 7 7 7 7 7 3 3 3 3 3 3 3 
3 3 3 3 3 3 3 3 3 3 3 3 7 7 7 7 7 7 7 7 7 7 7 7 7 7 7 7 11 11 11 11 11 11 11 11 11 11 11 11 11 7 7 7 7 7 7 7 7 7 7 7 7 7 7 7 7 7 3 3 3 3 3 3 
3 3 3 3 3 3 3 3 3 3 7 7 7 7 7 7 7 7 7 7 7 7 7 7 7 11 11 11 11 11 11 15 19 71 19 15 15 11 11 11 11 11 11 11 7 7 7 7 7 7 7 7 7 7 7 7 7 7 7 7 3 3 3 3 
3 3 3 3 3 3 3 3 7 7 7 7 7 7 7 7 7 7 7 7 7 7 7 11 11 11 11 11 11 15 15 19 27 91 23 19 15 15 11 11 11 11 11 11 11 11 7 7 7 7 7 7 7 7 7 7 7 7 7 7 7 3 3 3 
3 3 3 3 3 3 7 7 7 7 7 7 7 7 7 7 7 7 7 7 7 11 11 11 11 11 11 11 15 15 15 0 0 75 0 27 19 15 15 11 11 11 11 11 11 11 11 11 7 7 7 7 7 7 7 7 7 7 7 7 7 7 3 3 
3 3 3 3 3 7 7 7 7 7 7 7 7 7 7 7 7 7 7 11 11 11 11 11 11 11 11 15 15 19 23 39 0 175 0 47 23 19 15 15 15 11 11 11 11 11 11 11 11 11 7 7 7 7 7 7 7 7 7 7 7 7 7 3 
3 3 3 3 7 7 7 7 7 7 7 7 7 7 7 7 7 7 11 11 11 11 11 11 11 11 15 15 19 19 23 31 51 79 0 83 27 23 19 19 15 15 15 11 11 11 11 11 11 11 11 11 7 7 7 7 7 7 7 7 7 7 7 7 
3 3 3 7 7 7 7 7 7 7 7 7 7 7 7 7 11 11 11 11 11 11 11 11 11 15 19 19 23 31 39 0 131 195 119 55 31 27 23 23 23 19 15 15 15 15 11 11 11 11 11 11 11 11 7 7 7 7 7 7 7 7 7 7 
3 3 7 7 7 7 7 7 7 7 7 7 7 7 11 11 11 11 11 11 11 11 11 15 15 19 59 0 31 223 195 0 99 0 0 47 43 111 0 35 31 111 23 19 15 15 15 15 15 15 15 15 11 11 11 11 7 7 7 7 7 7 7 7 
3 7 7 7 7 7 7 7 7 7 7 7 7 11 11 11 11 11 11 11 15 15 15 15 19 23 0 99 55 0 0 0 91 79 67 67 0 0 0 0 115 115 31 23 19 19 15 15 15 15 15 15 15 15 15 11 11 11 11 7 7 7 7 7 
7 7 7 7 7 7 7 7 7 7 7 11 11 11 11 11 15 15 15 15 15 15 15 19 19 23 35 107 83 0 0 171 99 87 83 227 0 0 0 0 83 55 35 27 19 19 19 19 19 19 19 19 19 27 0 19 15 11 11 11 11 7 7 7 
7 7 7 7 7 7 7 7 7 11 11 11 11 15 15 15 15 15 15 15 15 19 19 19 23 31 191 0 0 0 0 203 0 171 0 0 0 0 0 187 0 0 0 43 31 23 23 23 23 23 55 27 31 83 0 23 15 15 11 11 11 11 7 7 
7 7 7 7 7 7 7 11 11 11 11 15 23 19 19 19 15 15 15 19 19 19 19 19 27 0 91 0 0 0 0 0 251 0 191 0 0 0 0 0 0 0 0 79 35 27 27 23 27 35 115 0 195 0 0 27 19 15 15 11 11 11 11 7 
7 7 7 7 7 11 11 11 11 15 15 19 111 0 27 23 23 23 23 23 23 23 23 23 27 43 235 0 0 0 0 0 0 0 0 0 223 0 0 163 0 0 0 0 179 35 31 31 39 103 239 0 0 79 135 0 31 19 15 15 15 11 11 11 
7 7 7 7 11 11 11 11 15 15 19 27 0 103 35 31 35 43 67 27 23 23 27 27 31 71 0 0 0 0 0 0 0 0 0 167 195 0 0 187 115 131 0 183 0 47 35 39 0 0 0 0 251 251 0 0 83 27 19 19 15 15 11 11 
7 7 11 11 11 11 11 15 15 15 23 35 155 155 51 0 0 95 59 159 0 31 31 31 35 51 0 0 0 0 0 0 0 0 227 155 159 0 91 91 91 91 99 115 187 0 43 43 0 0 0 0 0 0 243 211 0 179 27 23 23 27 15 11 
7 11 11 11 11 11 15 15 15 23 0 0 0 83 143 0 0 175 0 0 83 47 35 35 39 47 135 0 0 0 0 0 0 0 0 0 123 0 87 83 83 91 99 107 123 0 55 55 159 0 0 0 0 187 0 103 0 0 39 0 0 95 23 15 
7 11 11 11 15 15 15 19 19 27 191 179 0 0 251 0 0 183 0 187 0 0 67 43 43 47 71 0 0 0 0 0 0 0 0 0 95 83 75 79 83 91 0 227 127 211 0 63 71 159 0 0 231 251 83 83 99 119 59 0 0 251 183 23 
11 11 11 15 19 19 19 23 23 35 0 0 0 0 0 0 0 0 115 0 131 0 0 59 47 51 63 0 0 0 0 0 0 215 0 0 91 79 75 75 79 191 171 0 159 219 83 71 71 103 0 0 163 0 71 75 155 171 79 0 0 75 0 0 
11 15 15 19 83 35 99 31 31 39 0 0 0 0 231 151 0 91 91 95 103 119 199 0 55 55 59 0 231 0 223 0 0 175 151 239 0 71 67 67 75 0 143 231 179 0 83 75 79 0 175 0 0 0 67 59 203 107 91 147 0 151 127 103 
15 15 19 47 151 0 0 0 51 47 0 0 0 0 0 0 91 83 87 95 111 119 135 0 67 63 63 71 91 139 0 231 0 231 0 139 91 71 63 63 67 0 135 119 111 95 87 83 91 0 0 0 0 0 0 47 51 0 0 0 151 47 19 15 
19 103 127 151 0 147 91 107 203 59 67 0 0 0 175 0 79 75 83 0 179 231 143 0 75 67 67 71 0 239 151 175 0 0 223 0 231 0 59 55 55 0 199 119 103 95 91 91 0 151 231 0 0 0 0 39 31 31 99 35 83 19 15 15 
43 0 0 75 0 0 79 171 155 75 71 0 163 0 0 103 71 71 83 219 159 0 171 191 79 75 75 79 91 0 0 215 0 0 0 0 0 0 63 51 47 59 0 0 131 0 115 0 0 0 0 0 0 0 0 35 23 23 19 19 19 15 11 11 
15 23 183 251 0 0 59 119 99 83 83 251 231 0 0 159 71 63 0 211 127 227 0 91 83 79 75 83 95 0 0 0 0 0 0 0 0 0 71 47 43 43 67 0 0 187 0 183 0 0 251 0 0 179 191 27 19 19 15 15 15 11 11 11 
11 15 23 95 0 0 39 0 0 103 0 187 0 0 0 0 159 55 55 0 123 107 99 91 83 83 87 0 123 0 0 0 0 0 0 0 0 0 135 47 39 35 35 47 83 0 0 175 0 0 143 83 0 0 0 23 15 15 15 11 11 11 11 11 
11 11 15 27 23 23 27 179 0 211 243 0 0 0 0 0 0 43 43 0 187 115 99 91 91 91 91 0 159 155 227 0 0 0 0 0 0 0 0 51 35 31 31 31 0 159 59 95 0 0 51 155 155 35 23 15 15 15 11 11 11 11 11 7 
11 11 11 15 15 19 19 27 83 0 0 251 251 0 0 0 0 39 35 47 0 183 0 131 115 187 0 0 195 167 0 0 0 0 0 0 0 0 0 71 31 27 27 23 23 27 67 43 35 31 35 103 0 27 19 15 15 11 11 11 11 7 7 7 
7 11 11 11 15 15 15 19 31 0 135 79 0 0 239 103 39 31 31 35 179 0 0 0 0 163 0 0 223 0 0 0 0 0 0 0 0 0 235 43 27 23 23 23 23 23 23 23 23 23 27 0 111 19 15 15 11 11 11 11 7 7 7 7 
7 7 11 11 11 11 15 15 19 27 0 0 195 0 115 35 27 23 27 27 35 79 0 0 0 0 0 0 0 0 191 0 251 0 0 0 0 0 91 0 27 19 19 19 19 19 15 15 15 19 19 19 23 15 11 11 11 11 7 7 7 7 7 7 
7 7 7 11 11 11 11 15 15 23 0 83 31 27 55 23 23 23 23 23 31 43 0 0 0 187 0 0 0 0 0 171 0 203 0 0 0 0 191 31 23 19 19 19 15 15 15 15 15 15 15 15 11 11 11 11 7 7 7 7 7 7 7 7 
7 7 7 7 11 11 11 11 15 19 0 27 19 19 19 19 19 19 19 19 19 27 35 55 83 0 0 0 0 227 83 87 99 171 0 0 83 107 35 23 19 19 15 15 15 15 15 15 15 11 11 11 11 11 7 7 7 7 7 7 7 7 7 7 
7 7 7 7 7 7 11 11 11 11 15 15 15 15 15 15 15 15 15 19 19 23 31 115 115 0 0 0 0 67 67 79 91 0 0 0 55 99 0 23 19 15 15 15 15 11 11 11 11 11 11 11 7 7 7 7 7 7 7 7 7 7 7 7 
7 7 7 7 7 7 7 7 7 11 11 11 11 15 15 15 15 15 15 15 15 19 23 111 31 35 0 111 43 47 0 0 99 0 195 223 31 0 59 19 15 15 11 11 11 11 11 11 11 11 11 7 7 7 7 7 7 7 7 7 7 7 7 3 
7 7 7 7 7 7 7 7 7 7 7 11 11 11 11 11 11 11 11 15 15 15 15 19 23 23 23 27 31 55 119 195 131 0 39 31 23 19 19 15 11 11 11 11 11 11 11 11 11 7 7 7 7 7 7 7 7 7 7 7 7 7 3 3 
3 7 7 7 7 7 7 7 7 7 7 7 7 11 11 11 11 11 11 11 11 11 15 15 15 19 19 23 27 83 0 79 51 31 23 19 19 15 15 11 11 11 11 11 11 11 11 7 7 7 7 7 7 7 7 7 7 7 7 7 7 3 3 3 
3 3 7 7 7 7 7 7 7 7 7 7 7 7 7 11 11 11 11 11 11 11 11 11 15 15 15 19 23 47 0 175 0 39 23 19 15 15 11 11 11 11 11 11 11 11 7 7 7 7 7 7 7 7 7 7 7 7 7 7 3 3 3 3 
3 3 3 7 7 7 7 7 7 7 7 7 7 7 7 7 7 11 11 11 11 11 11 11 11 11 15 15 19 27 0 75 0 0 15 15 15 11 11 11 11 11 11 11 7 7 7 7 7 7 7 7 7 7 7 7 7 7 7 3 3 3 3 3 
3 3 3 3 7 7 7 7 7 7 7 7 7 7 7 7 7 7 7 11 11 11 11 11 11 11 11 15 15 19 23 91 27 19 15 15 11 11 11 11 11 11 7 7 7 7 7 7 7 7 7 7 7 7 7 7 7 3 3 3 3 3 3 3 
3 3 3 3 3 7 7 7 7 7 7 7 7 7 7 7 7 7 7 7 7 11 11 11 11 11 11 11 15 15 19 71 19 15 11 11 11 11 11 11 7 7 7 7 7 7 7 7 7 7 7 7 7 7 7 3 3 3 3 3 3 3 3 3 
3 3 3 3 3 3 3 7 7 7 7 7 7 7 7 7 7 7 7 7 7 7 7 7 11 11 11 11 11 11 11 11 11 11 11 11 11 7 7 7 7 7 7 7 7 7 7 7 7 7 7 7 7 3 3 3 3 3 3 3 3 3 3 3 
3 3 3 3 3 3 3 3 7 7 7 7 7 7 7 7 7 7 7 7 7 7 7 7 7 7 7 7 7 7 7 7 7 7 7 7 7 7 7 7 7 7 7 7 7 7 7 7 7 7 7 3 3 3 3 3 3 3 3 3 3 3 3 3 
3 3 3 3 3 3 3 3 3 3 3 7 7 7 7 7 7 7 7 7 7 7 7 7 7 7 7 7 7 7 7 7 7 7 7 7 7 7 7 7 7 7 7 7 7 7 7 7 3 3 3 3 3 3 3 3 3 3 3 3 3 3 3 3 
3 3 3 3 3 3 3 3 3 3 3 3 3 7 7 7 7 7 7 7 7 7 7 7 7 7 7 7 7 7 7 7 7 7 7 7 7 7 7 7 7 7 7 3 3 3 3 3 3 3 3 3 3 3 3 3 3 3 3 3 3 3 3 3 
3 3 3 3 3 3 3 3 3 3 3 3 3 3 3 3 3 3 7 7 7 7 7 7 7 7 7 7 7 7 7 7 7 7 7 7 3 3 3 3 3 3 3 3 3 3 3 3 3 3 3 3 3 3 3 3 3 3 3 3 3 3 3 3 
3 3 3 3 3 3 3 3 3 3 3 3 3 3 3 3 3 3 3 3 3 3 3 3 3 3 3 3 3 3 3 3 3 3 3 3 3 3 3 3 3 3 3 3 3 3 3 3 3 3 3 3 3 3 3 3 3 3 3 3 3 3 3 3 
3 3 3 3 3 3 3 3 3 3 3 3 3 3 3 3 3 3 3 3 3 3 3 3 3 3 3 3 3 3 3 3 3 3 3 3 3 3 3 3 3 3 3 3 3 3 3 3 3 3 3 3 3 3 3 3 3 3 3 3 3 3 3 3 
3 3 3 3 3 3 3 3 3 3 3 3 3 3 3 3 3 3 3 3 3 3 3 3 3 3 3 3 3 3 3 3 3 3 3 3 3 3 3 3 3 3 3 3 3 3 3 3 3 3 3 3 3 3 3 3 3 3 3 3 3 3 3 3 
3 3 3 3 3 3 3 3 3 3 3 3 3 3 3 3 3 3 3 3 3 3 3 3 3 3 3 3 3 3 3 3 3 3 3 3 3 3 3 3 3 3 3 3 3 3 3 3 3 3 3 3 3 3 3 3 3 3 3 3 3 3 3 3 
3 3 3 3 3 3 3 3 3 3 3 3 3 3 3 3 3 3 3 3 3 3 3 3 3 3 3 3 3 3 3 3 3 3 3 3 3 3 3 3 3 3 3 3 3 3 3 3 3 3 3 3 3 3 3 3 3 3 3 3 3 3 3 3 
0 3 3 3 3 3 3 3 3 3 3 3 3 3 3 3 3 3 3 3 3 3 3 3 3 3 3 3 3 3 3 3 3 3 3 3 3 3 3 3 3 3 3 3 3 3 3 3 3 3 3 3 3 3 3 3 3 3 3 3 3 3 3 3 
0 0 3 3 3 3 3 3 3 3 3 3 3 3 3 3 3 3 3 3 3 3 3 3 3 3 3 3 3 3 3 3 3 3 3 3 3 3 3 3 3 3 3 3 3 3 3 3 3 3 3 3 3 3 3 3 3 3 3 3 3 3 3 0 
0 0 0 3 3 3 3 3 3 3 3 3 3 3 3 3 3 3 3 3 3 3 3 3 3 3 3 3 3 3 3 3 3 3 3 3 3 3 3 3 3 3 3 3 3 3 3 3 3 3 3 3 3 3 3 3 3 3 3 3 3 3 0 0 
