P2
64 64
255
0 0 0 0 3 3 3 3 3 3 3 3 3 3 3 3 3 3 3 3 3 3 3 3 3 3 3 3 3 3 3 3 3 3 3 3 3 3 3 3 3 3 3 3 3 3 3 3 3 3 3 3 3 3 3 3 3 3 3 3 3 0 0 0 
0 0 0 3 3 3 3 3 3 3 3 3 3 3 3 3 3 3 3 3 3 3 3 3 3 3 3 3 3 3 3 3 3 3 3 3 3 3 3 3 3 3 3 3 3 3 3 3 3 3 3 3 3 3 3 3 3 3 3 3 3 3 0 0 
0 0 3 3 3 3 3 3 3 3 3 3 3 3 3 3 3 3 3 3 3 3 3 3 3 3 3 3 3 3 3 3 3 3 3 3 3 3 3 3 3 3 3 3 3 3 3 3 3 3 3 3 3 3 3 3 3 3 3 3 3 3 3 0 
0 3 3 3 3 3 3 3 3 3 3 3 3 3 3 3 3 3 3 3 3 3 3 3 3 3 3 3 3 3 3 3 3 3 3 3 3 3 3 3 3 3 3 3 3 3 3 3 3 3 3 3 3 3 3 3 3 3 3 3 3 3 3 3 
3 3 3 3 3 3 3 3 3 3 3 3 3 3 3 3 3 3 3 3 3 3 3 3 3 3 3 3 3 3 3 3 3 3 3 3 3 3 3 3 3 3 3 3 3 3 3 3 3 3 3 3 3 3 3 3 3 3 3 3 3 3 3 3 
3 3 3 3 3 3 3 3 3 3 3 3 3 3 3 3 3 3 3 3 3 3 3 3 3 3 3 3 3 3 3 3 3 3 3 3 3 3 3 3 3 3 3 3 3 3 3 3 3 3 3 3 3 3 3 3 3 3 3 3 3 3 3 3 
3 3 3 3 3 3 3 3 3 3 3 3 3 3 3 3 3 3 3 3 3 3 3 3 3 3 3 3 3 3 3 3 3 3 3 3 3 3 3 3 3 3 3 3 3 3 3 3 3 3 3 3 3 3 3 3 3 3 3 3 3 3 3 3 
3 3 3 3 3 3 3 3 3 3 3 3 3 3 3 3 3 3 3 3 3 3 3 3 3 3 3 3 3 3 3 3 3 3 3 3 3 3 3 3 3 3 3 3 3 3 3 3 3 3 3 3 3 3 3 3 3 3 3 3 3 3 3 3 
3 3 3 3 3 3 3 3 3 3 3 3 3 3 3 3 3 3 3 3 3 3 3 3 3 3 3 3 3 3 3 7 7 7 7 7 7 7 7 7 7 7 7 7 7 7 7 7 7 3 3 3 3 3 3 3 3 3 3 3 3 3 3 3 
3 3 3 3 3 3 3 3 3 3 3 3 3 3 3 3 3 3 3 3 3 3 3 3 3 3 7 7 7 7 7 7 7 7 7 7 7 7 7 7 7 7 7 7 7 7 7 7 7 7 7 7 3 3 3 3 3 3 3 3 3 3 3 3 
3 3 3 3 3 3 3 3 3 3 3 3 3 3 3 3 3 3 3 3 3 3 7 7 7 7 7 7 7 7 7 7 7 7 7 7 7 7 7 7 7 7 7 7 7 7 7 7 7 7 7 7 7 7 7 3 3 3 3 3 3 3 3 3 
3 3 3 3 3 3 3 3 3 3 3 3 3 3 3 3 3 3 7 7 7 7 7 7 7 7 7 7 7 7 7 7 7 7 7 7 7 7 7 7 7 7 7 7 7 7 7 7 7 7 7 7 7 7 7 7 7 3 3 3 3 3 3 3 
3 3 3 3 3 3 3 3 3 3 3 3 3 3 3 3 7 7 7 7 7 7 7 7 7 7 7 7 7 7 11 11 11 11 11 11 11 11 11 11 11 11 7 7 7 7 7 7 7 7 7 7 7 7 7 7 7 7 3 3 3 3 3 3 
3 3 3 3 3 3 3 3 3 3 3 3 3 7 7 7 7 7 7 7 7 7 7 7 7 7 7 11 11 11 11 11 15 19 19 15 15 11 11 11 11 11 11 11 11 7 7 7 7 7 7 7 7 7 7 7 7 7 7 7 3 3 3 3 
3 3 3 3 3 3 3 3 3 3 3 7 7 7 7 7 7 7 7 7 7 7 7 7 7 11 11 11 11 11 15 15 19 51 207 19 15 15 15 11 11 11 11 11 11 11 11 7 7 7 7 7 7 7 7 7 7 7 7 7 7 3 3 3 
3 3 3 3 3 3 3 3 3 7 7 7 7 7 7 7 7 7 7 7 7 7 7 11 11 11 11 11 11 15 15 19 0 0 0 27 19 15 15 15 11 11 11 11 11 11 11 11 11 7 7 7 7 7 7 7 7 7 7 7 7 7 3 3 
3 3 3 3 3 3 3 3 7 7 7 7 7 7 7 7 7 7 7 7 7 11 11 11 11 11 11 11 15 15 19 23 0 0 107 0 0 19 19 15 15 15 11 11 11 11 11 11 11 11 11 7 7 7 7 7 7 7 7 7 7 7 7 3 
3 3 3 3 3 3 3 7 7 7 7 7 7 7 7 7 7 7 7 7 11 11 11 11 11 11 11 15 15 19 23 27 0 0 0 179 0 23 19 19 19 15 15 15 11 11 11 11 11 11 11 11 11 7 7 7 7 7 7 7 7 7 7 7 
3 3 3 3 3 7 7 7 7 7 7 7 7 7 7 7 7 7 11 11 11 11 11 11 11 11 15 19 23 23 63 0 0 0 0 0 67 31 27 23 23 23 23 19 15 15 15 15 15 11 11 11 11 11 11 7 7 7 7 7 7 7 7 7 
3 3 3 3 7 7 7 7 7 7 7 7 7 7 7 7 7 11 11 11 11 11 11 11 11 15 19 27 75 47 59 0 0 0 0 0 75 35 35 0 43 39 0 23 19 19 15 15 15 15 15 15 15 15 11 11 11 11 7 7 7 7 7 7 
3 3 3 7 7 7 7 7 7 7 7 7 7 7 7 7 11 11 11 11 11 11 11 15 15 15 19 31 0 0 0 167 0 0 0 0 123 47 51 83 0 0 0 31 23 19 19 19 15 15 15 19 19 19 23 15 11 11 11 7 7 7 7 7 
3 3 7 7 7 7 7 7 7 7 7 7 7 7 11 11 11 11 11 11 15 15 15 15 15 19 23 31 0 0 0 0 0 0 0 0 0 215 59 83 179 0 0 35 27 23 19 19 19 23 27 27 27 55 71 19 15 15 11 11 11 7 7 7 
3 3 7 7 7 7 7 7 7 7 7 7 7 11 11 11 11 15 15 15 15 15 15 15 19 19 23 0 0 0 123 239 0 0 191 0 0 95 0 0 0 0 0 75 0 47 27 23 23 27 0 0 0 0 0 23 19 15 15 11 11 11 7 7 
3 7 7 7 7 7 7 7 7 7 7 11 11 11 11 15 15 15 15 15 15 15 19 19 19 23 27 39 127 63 75 0 99 143 0 0 0 131 0 0 0 167 0 0 0 47 35 27 31 39 95 0 0 0 95 31 23 15 15 15 11 11 11 7 
7 7 7 7 7 7 7 7 7 7 11 11 11 15 19 19 19 19 15 19 19 19 19 19 23 23 27 35 51 51 55 67 0 0 0 0 191 0 0 0 0 0 0 227 179 107 0 39 35 39 51 75 135 0 0 75 0 27 19 15 15 11 11 11 
7 7 7 7 7 7 7 7 11 11 11 15 15 23 0 27 23 23 23 23 35 23 23 23 23 27 31 35 39 43 51 0 0 0 0 0 211 0 0 0 0 0 0 0 0 0 91 147 47 47 55 0 0 0 179 0 0 39 23 19 19 15 11 11 
7 7 7 7 7 7 11 11 11 11 15 15 19 0 0 0 35 27 35 43 0 35 31 31 31 31 31 35 39 43 51 71 0 179 0 0 243 0 0 0 0 0 0 0 0 0 0 0 91 0 83 107 0 243 0 0 0 79 35 0 0 27 15 11 
7 7 7 7 7 11 11 11 11 15 15 19 23 59 0 0 0 39 0 251 0 51 0 0 47 39 43 43 43 79 59 71 99 0 0 0 0 0 0 0 0 0 0 0 0 0 0 0 0 0 0 131 0 0 0 0 0 0 123 59 0 0 19 15 
7 7 7 7 11 11 11 11 15 15 15 23 39 211 0 0 115 59 75 0 0 91 103 0 67 251 0 55 0 0 0 87 95 0 0 0 0 0 0 0 0 0 0 0 0 0 0 0 0 0 0 191 0 0 0 0 0 0 0 0 0 0 47 27 
7 7 11 11 11 11 11 15 15 15 19 31 0 0 0 0 0 0 167 0 211 0 0 0 127 0 0 79 0 0 0 0 0 131 0 0 0 0 0 0 0 0 0 0 0 0 0 0 235 0 0 0 0 0 0 0 0 0 0 0 0 0 95 0 
7 7 11 11 11 11 15 15 19 19 23 35 0 0 107 0 0 187 0 0 0 0 0 0 0 0 175 0 0 0 0 0 0 0 179 0 0 0 0 0 0 0 0 0 0 0 0 0 0 159 227 0 0 0 0 0 0 0 0 55 35 39 31 15 
7 11 11 11 15 19 23 19 23 23 27 31 47 55 0 0 0 207 0 0 0 0 0 0 0 0 0 0 0 0 0 0 0 0 0 215 0 0 0 0 0 0 0 0 0 0 0 0 0 0 95 0 83 0 79 0 0 0 0 0 23 19 15 15 
11 11 11 15 19 31 0 35 0 35 35 39 43 55 0 0 0 0 0 0 0 0 0 0 0 0 0 0 0 0 0 0 0 0 0 0 0 0 0 0 0 0 0 0 0 0 0 0 0 0 0 55 43 39 35 35 0 35 0 31 19 15 11 11 
11 15 15 19 23 0 0 0 0 0 79 0 83 0 95 0 0 0 0 0 0 0 0 0 0 0 0 0 0 215 0 0 0 0 0 0 0 0 0 0 0 0 0 0 0 0 0 207 0 0 0 55 47 31 27 23 23 19 23 19 15 11 11 11 
11 15 31 39 35 55 0 0 0 0 0 0 0 0 227 159 0 0 0 0 0 0 0 0 0 0 0 0 0 0 179 0 0 0 0 0 0 0 175 0 0 0 0 0 0 0 0 187 0 0 107 0 0 35 23 19 19 15 15 11 11 11 11 7 
15 0 95 0 0 0 0 0 0 0 0 0 0 0 0 0 235 0 0 0 0 0 0 0 0 0 0 0 0 0 0 131 0 0 0 0 0 79 0 0 127 0 0 0 211 0 167 0 0 0 0 0 0 31 19 15 15 15 11 11 11 11 11 7 
15 27 47 0 0 0 0 0 0 0 0 0 0 191 0 0 0 0 0 0 0 0 0 0 0 0 0 0 0 0 0 0 95 87 0 0 0 55 0 251 67 0 103 91 0 0 75 59 115 0 0 211 39 23 15 15 15 11 11 11 11 7 7 7 
11 15 19 0 0 59 123 0 0 0 0 0 0 131 0 0 0 0 0 0 0 0 0 0 0 0 0 0 0 0 0 0 99 71 59 79 43 43 43 39 47 0 0 51 0 251 0 39 0 0 0 59 23 19 15 15 11 11 11 11 7 7 7 7 
11 11 15 27 0 0 35 79 0 0 0 243 0 107 83 0 91 0 0 0 0 0 0 0 0 0 0 0 243 0 0 179 0 71 51 43 39 35 31 31 31 31 31 35 0 43 35 27 35 0 0 0 19 15 15 11 11 11 11 7 7 7 7 7 
11 11 11 15 19 19 23 39 0 0 179 0 0 0 55 47 47 147 91 0 0 0 0 0 0 0 0 0 211 0 0 0 0 0 51 43 39 35 31 27 23 23 23 23 35 23 23 23 23 27 0 23 15 15 11 11 11 7 7 7 7 7 7 7 
7 11 11 11 15 15 19 27 0 75 0 0 135 75 51 39 35 39 0 107 179 227 0 0 0 0 0 0 191 0 0 0 0 67 55 51 51 35 27 23 23 19 19 19 19 19 15 19 19 19 19 15 11 11 11 7 7 7 7 7 7 7 7 7 
7 7 11 11 11 15 15 15 23 31 95 0 0 0 95 39 31 27 35 47 0 0 0 167 0 0 0 131 0 0 0 143 99 0 75 63 127 39 27 23 19 19 19 15 15 15 15 15 15 15 11 11 11 11 7 7 7 7 7 7 7 7 7 7 
7 7 7 11 11 11 15 15 19 23 0 0 0 0 0 27 23 23 27 47 0 75 0 0 0 0 0 95 0 0 191 0 0 239 123 0 0 0 23 19 19 15 15 15 15 15 15 15 11 11 11 11 7 7 7 7 7 7 7 7 7 7 7 3 
7 7 7 7 11 11 11 15 15 19 71 55 27 27 27 23 19 19 19 23 27 35 0 0 179 83 59 215 0 0 0 0 0 0 0 0 0 31 23 19 15 15 15 15 15 11 11 11 11 11 11 7 7 7 7 7 7 7 7 7 7 7 7 3 
7 7 7 7 7 7 11 11 11 15 23 19 19 19 15 15 15 19 19 19 23 31 0 0 0 83 51 47 123 0 0 0 0 167 0 0 0 31 19 15 15 15 11 11 11 11 11 11 11 7 7 7 7 7 7 7 7 7 7 7 7 7 3 3 
7 7 7 7 7 7 7 11 11 11 11 15 15 15 15 15 15 15 15 19 19 23 0 39 43 0 35 35 75 0 0 0 0 0 59 47 75 27 19 15 11 11 11 11 11 11 11 11 7 7 7 7 7 7 7 7 7 7 7 7 7 3 3 3 
3 7 7 7 7 7 7 7 7 7 11 11 11 11 11 11 15 15 15 15 15 19 23 23 23 23 27 31 67 0 0 0 0 0 63 23 23 19 15 11 11 11 11 11 11 11 11 7 7 7 7 7 7 7 7 7 7 7 7 7 3 3 3 3 
3 7 7 7 7 7 7 7 7 7 7 7 11 11 11 11 11 11 11 11 11 15 15 15 19 19 19 23 0 179 0 0 0 27 23 19 15 15 11 11 11 11 11 11 11 7 7 7 7 7 7 7 7 7 7 7 7 7 3 3 3 3 3 3 
3 3 7 7 7 7 7 7 7 7 7 7 7 7 11 11 11 11 11 11 11 11 11 15 15 15 19 19 0 0 107 0 0 23 19 15 15 11 11 11 11 11 11 11 7 7 7 7 7 7 7 7 7 7 7 7 7 3 3 3 3 3 3 3 
3 3 3 7 7 7 7 7 7 7 7 7 7 7 7 7 11 11 11 11 11 11 11 11 11 15 15 15 19 27 0 0 0 19 15 15 11 11 11 11 11 11 7 7 7 7 7 7 7 7 7 7 7 7 7 7 3 3 3 3 3 3 3 3 
3 3 3 3 7 7 7 7 7 7 7 7 7 7 7 7 7 7 11 11 11 11 11 11 11 11 15 15 15 19 207 51 19 15 15 11 11 11 11 11 7 7 7 7 7 7 7 7 7 7 7 7 7 7 3 3 3 3 3 3 3 3 3 3 
3 3 3 3 3 7 7 7 7 7 7 7 7 7 7 7 7 7 7 7 11 11 11 11 11 11 11 11 15 15 19 19 15 11 11 11 11 11 7 7 7 7 7 7 7 7 7 7 7 7 7 7 3 3 3 3 3 3 3 3 3 3 3 3 
3 3 3 3 3 3 3 7 7 7 7 7 7 7 7 7 7 7 7 7 7 7 7 11 11 11 11 11 11 11 11 11 11 11 11 7 7 7 7 7 7 7 7 7 7 7 7 7 7 3 3 3 3 3 3 3 3 3 3 3 3 3 3 3 
3 3 3 3 3 3 3 3 7 7 7 7 7 7 7 7 7 7 7 7 7 7 7 7 7 7 7 7 7 7 7 7 7 7 7 7 7 7 7 7 7 7 7 7 7 7 7 3 3 3 3 3 3 3 3 3 3 3 3 3 3 3 3 3 
3 3 3 3 3 3 3 3 3 3 7 7 7 7 7 7 7 7 7 7 7 7 7 7 7 7 7 7 7 7 7 7 7 7 7 7 7 7 7 7 7 7 7 3 3 3 3 3 3 3 3 3 3 3 3 3 3 3 3 3 3 3 3 3 
3 3 3 3 3 3 3 3 3 3 3 3 3 7 7 7 7 7 7 7 7 7 7 7 7 7 7 7 7 7 7 7 7 7 7 7 7 7 7 3 3 3 3 3 3 3 3 3 3 3 3 3 3 3 3 3 3 3 3 3 3 3 3 3 
3 3 3 3 3 3 3 3 3 3 3 3 3 3 3 3 7 7 7 7 7 7 7 7 7 7 7 7 7 7 7 7 7 7 3 3 3 3 3 3 3 3 3 3 3 3 3 3 3 3 3 3 3 3 3 3 3 3 3 3 3 3 3 3 
3 3 3 3 3 3 3 3 3 3 3 3 3 3 3 3 3 3 3 3 3 3 3 3 3 3 3 3 3 3 3 3 3 3 3 3 3 3 3 3 3 3 3 3 3 3 3 3 3 3 3 3 3 3 3 3 3 3 3 3 3 3 3 3 
3 3 3 3 3 3 3 3 3 3 3 3 3 3 3 3 3 3 3 3 3 3 3 3 3 3 3 3 3 3 3 3 3 3 3 3 3 3 3 3 3 3 3 3 3 3 3 3 3 3 3 3 3 3 3 3 3 3 3 3 3 3 3 3 
3 3 3 3 3 3 3 3 3 3 3 3 3 3 3 3 3 3 3 3 3 3 3 3 3 3 3 3 3 3 3 3 3 3 3 3 3 3 3 3 3 3 3 3 3 3 3 3 3 3 3 3 3 3 3 3 3 3 3 3 3 3 3 3 
3 3 3 3 3 3 3 3 3 3 3 3 3 3 3 3 3 3 3 3 3 3 3 3 3 3 3 3 3 3 3 3 3 3 3 3 3 3 3 3 3 3 3 3 3 3 3 3 3 3 3 3 3 3 3 3 3 3 3 3 3 3 3 3 
0 3 3 3 3 3 3 3 3 3 3 3 3 3 3 3 3 3 3 3 3 3 3 3 3 3 3 3 3 3 3 3 3 3 3 3 3 3 3 3 3 3 3 3 3 3 3 3 3 3 3 3 3 3 3 3 3 3 3 3 3 3 3 3 
0 0 3 3 3 3 3 3 3 3 3 3 3 3 3 3 3 3 3 3 3 3 3 3 3 3 3 3 3 3 3 3 3 3 3 3 3 3 3 3 3 3 3 3 3 3 3 3 3 3 3 3 3 3 3 3 3 3 3 3 3 3 3 0 
0 0 0 3 3 3 3 3 3 3 3 3 3 3 3 3 3 3 3 3 3 3 3 3 3 3 3 3 3 3 3 3 3 3 3 3 3 3 3 3 3 3 3 3 3 3 3 3 3 3 3 3 3 3 3 3 3 3 3 3 3 3 0 0 
