P2
64 64
255
3 3 3 3 3 3 3 3 3 3 3 3 3 3 3 3 3 3 7 7 7 7 7 7 7 7 7 7 11 11 11 11 11 11 11 11 11 11 11 11 11 11 11 11 11 11 7 7 7 7 7 7 7 7 7 7 7 7 7 7 7 7 7 7 
3 3 3 3 3 3 3 3 3 3 3 3 3 3 3 3 3 7 7 7 7 7 7 7 7 7 11 11 11 11 11 11 11 11 11 11 11 11 11 11 11 11 11 11 11 11 11 11 7 7 7 7 7 7 7 7 7 7 7 7 7 7 7 7 
3 3 3 3 3 3 3 3 3 3 3 3 3 3 3 3 3 7 7 7 7 7 7 7 11 11 11 11 11 11 11 11 11 11 11 11 11 11 11 11 11 15 15 15 15 11 11 11 11 11 7 7 7 7 7 7 7 7 7 7 7 7 7 7 
3 3 3 3 3 3 3 3 3 3 3 3 3 3 3 3 7 7 7 7 7 7 7 11 11 11 11 11 11 11 11 11 11 11 11 11 11 11 15 15 15 15 23 19 19 15 15 15 11 11 11 7 7 7 7 7 7 7 7 7 7 7 7 7 
3 3 3 3 3 3 3 3 3 3 3 3 3 3 3 3 7 7 7 7 7 11 11 11 11 11 11 11 11 11 11 11 11 11 11 11 11 15 15 15 15 19 35 27 19 19 15 15 15 11 11 11 11 7 7 7 7 7 7 7 7 7 7 7 
3 3 3 3 3 3 3 3 3 3 3 3 3 3 3 7 7 7 7 7 11 11 11 11 11 11 11 11 11 11 11 11 11 11 11 15 15 15 15 15 19 19 31 39 23 23 19 15 15 15 11 11 11 11 7 7 7 7 7 7 7 7 7 7 
3 3 3 3 3 3 3 3 3 3 3 3 3 3 3 7 7 7 7 11 11 11 11 11 11 11 11 11 11 11 11 11 11 11 15 15 15 15 15 19 19 23 27 51 31 31 23 15 15 15 15 11 11 11 11 7 7 7 7 7 7 7 7 7 
3 3 3 3 3 3 3 3 3 3 3 3 3 3 7 7 7 7 11 11 11 11 11 11 11 11 11 11 11 11 11 11 11 15 15 15 15 15 15 19 19 23 27 39 47 71 23 19 15 15 15 15 11 11 11 11 7 7 7 7 7 7 7 7 
3 3 3 3 3 3 3 3 3 3 3 3 3 3 7 7 7 7 11 11 11 11 11 11 11 11 11 11 11 11 11 11 15 15 15 15 15 15 19 19 19 27 31 39 63 35 27 19 15 15 15 15 11 11 11 11 11 7 7 7 7 7 7 7 
3 3 3 3 3 3 3 3 3 3 3 3 3 3 7 7 7 11 11 11 11 11 11 11 11 11 11 11 11 11 11 15 15 15 15 15 15 15 19 19 23 27 35 99 119 35 27 19 19 15 15 15 15 11 11 11 11 7 7 7 7 7 7 7 
3 3 3 3 3 3 3 3 3 3 3 3 3 7 7 7 11 11 11 11 11 11 11 11 11 11 11 11 11 11 15 15 15 15 15 15 15 19 19 23 27 47 51 107 0 43 47 23 19 19 15 15 15 15 11 11 11 11 7 7 7 7 7 7 
3 3 3 3 3 3 3 3 3 3 3 3 3 7 7 11 11 11 11 11 11 11 11 11 11 11 11 11 11 11 15 15 15 15 15 15 19 19 23 23 31 51 139 0 0 75 199 27 19 19 19 15 15 15 11 11 11 11 11 7 7 7 7 7 
3 3 3 3 3 3 3 3 3 3 3 3 3 7 7 11 11 11 11 11 11 11 11 11 11 11 11 11 11 15 15 15 15 15 15 19 19 23 23 27 31 67 0 0 0 0 43 27 23 19 19 19 15 15 15 11 11 11 11 7 7 7 7 7 
3 3 3 3 3 3 3 3 3 3 3 3 7 7 11 11 11 11 11 11 11 11 11 11 11 11 11 11 15 15 15 15 15 15 19 23 23 23 27 27 31 55 0 0 0 0 63 31 27 23 23 19 19 15 15 11 11 11 11 11 7 7 7 7 
3 3 3 3 3 3 3 3 3 3 3 3 7 7 11 11 11 11 11 11 11 11 11 11 11 11 11 15 15 15 15 15 19 19 23 27 43 31 31 35 39 51 0 0 0 0 43 35 31 27 23 23 35 19 15 11 11 11 11 11 7 7 7 7 
3 3 3 3 3 3 3 3 3 3 3 3 7 11 11 11 11 11 11 11 11 11 11 11 11 11 15 15 15 15 15 19 19 23 31 67 119 35 39 183 59 67 87 0 0 79 63 51 71 31 27 27 39 27 15 15 11 11 11 11 11 7 7 7 
3 3 3 3 3 3 3 3 3 3 3 7 7 11 11 11 11 11 11 11 11 11 11 11 11 15 15 15 15 19 19 19 19 23 27 95 115 231 47 0 0 0 0 0 0 0 0 107 0 43 35 43 47 35 19 15 11 11 11 11 11 7 7 7 
3 3 3 3 3 3 3 3 3 3 3 7 11 11 11 11 11 11 11 11 11 11 11 11 15 15 15 19 19 19 19 19 23 23 31 51 0 0 103 0 0 0 0 0 0 0 0 0 0 183 63 95 99 39 19 15 11 11 11 11 11 11 7 7 
3 3 3 3 3 3 3 3 3 3 3 7 11 11 11 11 11 11 11 11 11 11 11 15 15 15 19 19 19 19 19 23 23 27 31 51 0 0 0 0 0 0 0 0 0 0 0 0 0 0 0 0 75 31 19 15 15 11 11 11 11 11 7 7 
3 3 3 3 3 3 3 3 3 3 3 7 11 11 11 11 11 11 11 11 11 11 15 15 19 19 19 19 19 19 19 23 23 31 39 51 0 0 0 0 0 0 0 0 0 0 0 0 0 0 0 0 119 27 23 19 15 11 11 11 11 11 7 7 
3 3 3 3 3 3 3 3 3 3 3 11 11 11 11 11 11 11 11 11 11 15 15 19 19 19 19 19 19 23 23 23 27 103 75 83 0 0 0 0 0 0 0 0 0 0 0 0 0 0 0 0 43 27 23 19 15 11 11 11 11 11 11 7 
3 3 3 3 3 3 3 3 3 3 7 11 11 11 11 11 11 11 11 15 15 19 31 27 23 23 23 23 23 23 27 27 31 43 0 0 0 0 0 0 0 0 0 0 0 0 0 0 0 0 0 0 0 31 27 19 15 11 11 11 11 11 11 7 
3 3 3 3 3 3 3 3 3 3 7 11 11 11 11 11 11 15 15 15 19 19 27 43 27 27 27 35 27 27 27 27 31 47 95 0 0 0 0 0 0 0 0 0 0 0 0 0 0 0 0 0 0 43 63 19 15 15 11 11 11 11 11 7 
3 3 3 3 3 3 3 3 3 3 7 11 11 11 11 15 15 15 15 19 19 23 31 47 35 31 35 51 35 31 31 31 39 191 0 0 0 0 0 0 0 0 0 0 0 0 0 0 0 0 0 0 0 0 159 19 15 15 11 11 11 11 11 11 
3 3 3 3 3 3 3 3 3 3 11 11 11 15 15 15 15 15 19 19 19 23 31 59 75 51 43 67 43 91 35 35 39 79 0 0 0 0 0 0 0 0 0 0 0 0 0 0 0 0 0 0 0 0 31 19 15 15 11 11 11 11 11 11 
3 3 3 3 3 3 3 3 3 3 11 11 15 15 15 15 15 15 19 19 19 23 27 35 59 0 87 111 79 0 55 39 47 0 0 0 0 0 0 0 0 0 0 0 0 0 0 0 0 0 0 0 0 55 27 19 15 15 11 11 11 11 11 11 
3 3 3 3 3 3 3 3 3 3 11 15 15 15 15 15 15 19 19 19 19 27 27 39 87 0 0 0 0 0 0 47 55 0 0 0 0 0 0 0 0 0 0 0 0 0 0 0 0 0 0 0 0 127 31 19 15 15 11 11 11 11 11 11 
3 3 3 3 3 3 3 3 3 3 11 15 15 15 15 15 19 19 19 19 23 27 35 47 103 0 0 0 0 0 0 67 67 0 0 0 0 0 0 0 0 0 0 0 0 0 0 0 0 0 0 0 0 0 27 19 15 15 11 11 11 11 11 11 
3 3 3 3 3 3 3 3 3 3 15 15 15 15 15 15 19 19 19 23 39 35 39 243 0 0 0 0 0 0 0 0 83 0 0 0 0 0 0 0 0 0 0 0 0 0 0 0 0 0 0 0 0 59 23 19 15 15 15 11 11 11 11 11 
3 3 3 3 3 3 3 3 3 3 15 15 15 15 15 19 23 23 23 27 55 43 47 0 0 0 0 0 0 0 0 0 107 0 0 0 0 0 0 0 0 0 0 0 0 0 0 0 0 0 0 0 0 35 23 19 15 15 15 11 11 11 11 11 
3 3 3 3 3 3 3 3 3 3 15 19 19 15 23 23 23 27 27 31 43 87 91 203 0 0 0 0 0 0 0 0 163 0 0 0 0 0 0 0 0 0 0 0 0 0 0 0 0 0 0 0 0 27 23 19 15 15 15 11 11 11 11 11 
3 3 3 3 3 3 3 3 3 3 19 23 23 27 27 31 35 31 35 43 67 0 0 0 0 0 0 0 0 0 0 0 0 0 0 0 0 0 0 0 0 0 0 0 0 0 0 0 0 0 0 0 39 27 23 19 15 15 15 11 11 11 11 11 
3 3 3 3 3 3 3 3 3 3 0 0 0 0 0 0 0 0 0 0 0 0 0 0 0 0 0 0 0 0 0 0 0 0 0 0 0 0 0 0 0 0 0 0 0 0 0 0 0 0 0 55 35 27 23 19 15 15 15 11 11 11 11 11 
3 3 3 3 3 3 3 3 3 3 19 23 23 27 27 31 35 31 35 43 67 0 0 0 0 0 0 0 0 0 0 0 0 0 0 0 0 0 0 0 0 0 0 0 0 0 0 0 0 0 0 0 39 27 23 19 15 15 15 11 11 11 11 11 
3 3 3 3 3 3 3 3 3 3 15 19 19 15 23 23 23 27 27 31 43 87 91 203 0 0 0 0 0 0 0 0 163 0 0 0 0 0 0 0 0 0 0 0 0 0 0 0 0 0 0 0 0 27 23 19 15 15 15 11 11 11 11 11 
3 3 3 3 3 3 3 3 3 3 15 15 15 15 15 19 23 23 23 27 55 43 47 0 0 0 0 0 0 0 0 0 107 0 0 0 0 0 0 0 0 0 0 0 0 0 0 0 0 0 0 0 0 35 23 19 15 15 15 11 11 11 11 11 
3 3 3 3 3 3 3 3 3 3 15 15 15 15 15 15 19 19 19 23 39 35 39 243 0 0 0 0 0 0 0 0 83 0 0 0 0 0 0 0 0 0 0 0 0 0 0 0 0 0 0 0 0 59 23 19 15 15 15 11 11 11 11 11 
3 3 3 3 3 3 3 3 3 3 11 15 15 15 15 15 19 19 19 19 23 27 35 47 103 0 0 0 0 0 0 67 67 0 0 0 0 0 0 0 0 0 0 0 0 0 0 0 0 0 0 0 0 0 27 19 15 15 11 11 11 11 11 11 
3 3 3 3 3 3 3 3 3 3 11 15 15 15 15 15 15 19 19 19 19 27 27 39 87 0 0 0 0 0 0 47 55 0 0 0 0 0 0 0 0 0 0 0 0 0 0 0 0 0 0 0 0 127 31 19 15 15 11 11 11 11 11 11 
3 3 3 3 3 3 3 3 3 3 11 11 15 15 15 15 15 15 19 19 19 23 27 35 59 0 87 111 79 0 55 39 47 0 0 0 0 0 0 0 0 0 0 0 0 0 0 0 0 0 0 0 0 55 27 19 15 15 11 11 11 11 11 11 
3 3 3 3 3 3 3 3 3 3 11 11 11 15 15 15 15 15 19 19 19 23 31 59 75 51 43 67 43 91 35 35 39 79 0 0 0 0 0 0 0 0 0 0 0 0 0 0 0 0 0 0 0 0 31 19 15 15 11 11 11 11 11 11 
3 3 3 3 3 3 3 3 3 3 7 11 11 11 11 15 15 15 15 19 19 23 31 47 35 31 35 51 35 31 31 31 39 191 0 0 0 0 0 0 0 0 0 0 0 0 0 0 0 0 0 0 0 0 159 19 15 15 11 11 11 11 11 11 
3 3 3 3 3 3 3 3 3 3 7 11 11 11 11 11 11 15 15 15 19 19 27 43 27 27 27 35 27 27 27 27 31 47 95 0 0 0 0 0 0 0 0 0 0 0 0 0 0 0 0 0 0 43 63 19 15 15 11 11 11 11 11 7 
3 3 3 3 3 3 3 3 3 3 7 11 11 11 11 11 11 11 11 15 15 19 31 27 23 23 23 23 23 23 27 27 31 43 0 0 0 0 0 0 0 0 0 0 0 0 0 0 0 0 0 0 0 31 27 19 15 11 11 11 11 11 11 7 
3 3 3 3 3 3 3 3 3 3 3 11 11 11 11 11 11 11 11 11 11 15 15 19 19 19 19 19 19 23 23 23 27 103 75 83 0 0 0 0 0 0 0 0 0 0 0 0 0 0 0 0 43 27 23 19 15 11 11 11 11 11 11 7 
3 3 3 3 3 3 3 3 3 3 3 7 11 11 11 11 11 11 11 11 11 11 15 15 19 19 19 19 19 19 19 23 23 31 39 51 0 0 0 0 0 0 0 0 0 0 0 0 0 0 0 0 119 27 23 19 15 11 11 11 11 11 7 7 
3 3 3 3 3 3 3 3 3 3 3 7 11 11 11 11 11 11 11 11 11 11 11 15 15 15 19 19 19 19 19 23 23 27 31 51 0 0 0 0 0 0 0 0 0 0 0 0 0 0 0 0 75 31 19 15 15 11 11 11 11 11 7 7 
3 3 3 3 3 3 3 3 3 3 3 7 11 11 11 11 11 11 11 11 11 11 11 11 15 15 15 19 19 19 19 19 23 23 31 51 0 0 103 0 0 0 0 0 0 0 0 0 0 183 63 95 99 39 19 15 11 11 11 11 11 11 7 7 
3 3 3 3 3 3 3 3 3 3 3 7 7 11 11 11 11 11 11 11 11 11 11 11 11 15 15 15 15 19 19 19 19 23 27 95 115 231 47 0 0 0 0 0 0 0 0 107 0 43 35 43 47 35 19 15 11 11 11 11 11 7 7 7 
3 3 3 3 3 3 3 3 3 3 3 3 7 11 11 11 11 11 11 11 11 11 11 11 11 11 15 15 15 15 15 19 19 23 31 67 119 35 39 183 59 67 87 0 0 79 63 51 71 31 27 27 39 27 15 15 11 11 11 11 11 7 7 7 
3 3 3 3 3 3 3 3 3 3 3 3 7 7 11 11 11 11 11 11 11 11 11 11 11 11 11 15 15 15 15 15 19 19 23 27 43 31 31 35 39 51 0 0 0 0 43 35 31 27 23 23 35 19 15 11 11 11 11 11 7 7 7 7 
3 3 3 3 3 3 3 3 3 3 3 3 7 7 11 11 11 11 11 11 11 11 11 11 11 11 11 11 15 15 15 15 15 15 19 23 23 23 27 27 31 55 0 0 0 0 63 31 27 23 23 19 19 15 15 11 11 11 11 11 7 7 7 7 
3 3 3 3 3 3 3 3 3 3 3 3 3 7 7 11 11 11 11 11 11 11 11 11 11 11 11 11 11 15 15 15 15 15 15 19 19 23 23 27 31 67 0 0 0 0 43 27 23 19 19 19 15 15 15 11 11 11 11 7 7 7 7 7 
3 3 3 3 3 3 3 3 3 3 3 3 3 7 7 11 11 11 11 11 11 11 11 11 11 11 11 11 11 11 15 15 15 15 15 15 19 19 23 23 31 51 139 0 0 75 199 27 19 19 19 15 15 15 11 11 11 11 11 7 7 7 7 7 
3 3 3 3 3 3 3 3 3 3 3 3 3 7 7 7 11 11 11 11 11 11 11 11 11 11 11 11 11 11 15 15 15 15 15 15 15 19 19 23 27 47 51 107 0 43 47 23 19 19 15 15 15 15 11 11 11 11 7 7 7 7 7 7 
3 3 3 3 3 3 3 3 3 3 3 3 3 3 7 7 7 11 11 11 11 11 11 11 11 11 11 11 11 11 11 15 15 15 15 15 15 15 19 19 23 27 35 99 119 35 27 19 19 15 15 15 15 11 11 11 11 7 7 7 7 7 7 7 
3 3 3 3 3 3 3 3 3 3 3 3 3 3 7 7 7 7 11 11 11 11 11 11 11 11 11 11 11 11 11 11 15 15 15 15 15 15 19 19 19 27 31 39 63 35 27 19 15 15 15 15 11 11 11 11 11 7 7 7 7 7 7 7 
3 3 3 3 3 3 3 3 3 3 3 3 3 3 7 7 7 7 11 11 11 11 11 11 11 11 11 11 11 11 11 11 11 15 15 15 15 15 15 19 19 23 27 39 47 71 23 19 15 15 15 15 11 11 11 11 7 7 7 7 7 7 7 7 
3 3 3 3 3 3 3 3 3 3 3 3 3 3 3 7 7 7 7 11 11 11 11 11 11 11 11 11 11 11 11 11 11 11 15 15 15 15 15 19 19 23 27 51 31 31 23 15 15 15 15 11 11 11 11 7 7 7 7 7 7 7 7 7 
3 3 3 3 3 3 3 3 3 3 3 3 3 3 3 7 7 7 7 7 11 11 11 11 11 11 11 11 11 11 11 11 11 11 11 15 15 15 15 15 19 19 31 39 23 23 19 15 15 15 11 11 11 11 7 7 7 7 7 7 7 7 7 7 
3 3 3 3 3 3 3 3 3 3 3 3 3 3 3 3 7 7 7 7 7 11 11 11 11 11 11 11 11 11 11 11 11 11 11 11 11 15 15 15 15 19 35 27 19 19 15 15 15 11 11 11 11 7 7 7 7 7 7 7 7 7 7 7 
3 3 3 3 3 3 3 3 3 3 3 3 3 3 3 3 7 7 7 7 7 7 7 11 11 11 11 11 11 11 11 11 11 11 11 11 11 11 15 15 15 15 23 19 19 15 15 15 11 11 11 7 7 7 7 7 7 7 7 7 7 7 7 7 
3 3 3 3 3 3 3 3 3 3 3 3 3 3 3 3 3 7 7 7 7 7 7 7 11 11 11 11 11 11 11 11 11 11 11 11 11 11 11 11 11 15 15 15 15 11 11 11 11 11 7 7 7 7 7 7 7 7 7 7 7 7 7 7 
3 3 3 3 3 3 3 3 3 3 3 3 3 3 3 3 3 7 7 7 7 7 7 7 7 7 11 11 11 11 11 11 11 11 11 11 11 11 11 11 11 11 11 11 11 11 11 11 7 7 7 7 7 7 7 7 7 7 7 7 7 7 7 7 
